<mxfile host="Electron" agent="Mozilla/5.0 (Windows NT 10.0; Win64; x64) AppleWebKit/537.36 (KHTML, like Gecko) draw.io/26.0.9 Chrome/128.0.6613.186 Electron/32.2.5 Safari/537.36" version="26.0.9">
  <diagram id="R2lEEEUBdFMjLlhIrx00" name="Page-1">
    <mxGraphModel dx="1050" dy="621" grid="1" gridSize="10" guides="1" tooltips="1" connect="1" arrows="1" fold="1" page="1" pageScale="1" pageWidth="850" pageHeight="1100" math="0" shadow="0" extFonts="Permanent Marker^https://fonts.googleapis.com/css?family=Permanent+Marker">
      <root>
        <mxCell id="0" />
        <mxCell id="1" parent="0" />
        <mxCell id="IdgG0UY67lodC6Iq7d0v-5" style="edgeStyle=orthogonalEdgeStyle;rounded=0;orthogonalLoop=1;jettySize=auto;html=1;exitX=0.25;exitY=0;exitDx=0;exitDy=0;entryX=0.5;entryY=1;entryDx=0;entryDy=0;" edge="1" parent="1" source="IdgG0UY67lodC6Iq7d0v-1" target="IdgG0UY67lodC6Iq7d0v-2">
          <mxGeometry relative="1" as="geometry" />
        </mxCell>
        <mxCell id="IdgG0UY67lodC6Iq7d0v-7" style="edgeStyle=orthogonalEdgeStyle;rounded=0;orthogonalLoop=1;jettySize=auto;html=1;exitX=0.75;exitY=0;exitDx=0;exitDy=0;" edge="1" parent="1" source="IdgG0UY67lodC6Iq7d0v-1">
          <mxGeometry relative="1" as="geometry">
            <mxPoint x="220" y="220" as="targetPoint" />
          </mxGeometry>
        </mxCell>
        <mxCell id="IdgG0UY67lodC6Iq7d0v-1" value="&lt;font style=&quot;font-size: 16px;&quot;&gt;&lt;b&gt;Sales office&lt;/b&gt;&lt;/font&gt;" style="rounded=0;whiteSpace=wrap;html=1;" vertex="1" parent="1">
          <mxGeometry x="120" y="240" width="120" height="60" as="geometry" />
        </mxCell>
        <mxCell id="IdgG0UY67lodC6Iq7d0v-2" value="Office-Num" style="ellipse;whiteSpace=wrap;html=1;" vertex="1" parent="1">
          <mxGeometry x="80" y="170" width="90" height="50" as="geometry" />
        </mxCell>
        <mxCell id="IdgG0UY67lodC6Iq7d0v-17" style="edgeStyle=orthogonalEdgeStyle;rounded=0;orthogonalLoop=1;jettySize=auto;html=1;exitX=0.75;exitY=0;exitDx=0;exitDy=0;entryX=0.5;entryY=1;entryDx=0;entryDy=0;" edge="1" parent="1" source="IdgG0UY67lodC6Iq7d0v-8" target="IdgG0UY67lodC6Iq7d0v-15">
          <mxGeometry relative="1" as="geometry" />
        </mxCell>
        <mxCell id="IdgG0UY67lodC6Iq7d0v-8" value="&lt;font style=&quot;font-size: 16px;&quot;&gt;&lt;b&gt;Employee&lt;/b&gt;&lt;/font&gt;" style="rounded=0;whiteSpace=wrap;html=1;" vertex="1" parent="1">
          <mxGeometry x="590" y="240" width="120" height="60" as="geometry" />
        </mxCell>
        <mxCell id="IdgG0UY67lodC6Iq7d0v-9" value="Assign" style="rhombus;whiteSpace=wrap;html=1;" vertex="1" parent="1">
          <mxGeometry x="370" y="240" width="80" height="80" as="geometry" />
        </mxCell>
        <mxCell id="IdgG0UY67lodC6Iq7d0v-10" value="" style="endArrow=none;html=1;rounded=0;exitX=1;exitY=0.75;exitDx=0;exitDy=0;entryX=0;entryY=0.5;entryDx=0;entryDy=0;" edge="1" parent="1" target="IdgG0UY67lodC6Iq7d0v-9">
          <mxGeometry width="50" height="50" relative="1" as="geometry">
            <mxPoint x="240" y="282.5" as="sourcePoint" />
            <mxPoint x="370" y="277.5" as="targetPoint" />
          </mxGeometry>
        </mxCell>
        <mxCell id="IdgG0UY67lodC6Iq7d0v-11" value="" style="endArrow=none;html=1;rounded=0;entryX=-0.033;entryY=0.627;entryDx=0;entryDy=0;entryPerimeter=0;shape=link;" edge="1" parent="1" target="IdgG0UY67lodC6Iq7d0v-8">
          <mxGeometry width="50" height="50" relative="1" as="geometry">
            <mxPoint x="450" y="280" as="sourcePoint" />
            <mxPoint x="500" y="230" as="targetPoint" />
          </mxGeometry>
        </mxCell>
        <mxCell id="IdgG0UY67lodC6Iq7d0v-12" value="1" style="text;html=1;align=center;verticalAlign=middle;whiteSpace=wrap;rounded=0;" vertex="1" parent="1">
          <mxGeometry x="240" y="255" width="60" height="30" as="geometry" />
        </mxCell>
        <mxCell id="IdgG0UY67lodC6Iq7d0v-13" value="M" style="text;html=1;align=center;verticalAlign=middle;whiteSpace=wrap;rounded=0;" vertex="1" parent="1">
          <mxGeometry x="520" y="240" width="60" height="30" as="geometry" />
        </mxCell>
        <mxCell id="IdgG0UY67lodC6Iq7d0v-14" value="Emp_id" style="ellipse;whiteSpace=wrap;html=1;" vertex="1" parent="1">
          <mxGeometry x="540" y="170" width="80" height="50" as="geometry" />
        </mxCell>
        <mxCell id="IdgG0UY67lodC6Iq7d0v-15" value="Emp_name" style="ellipse;whiteSpace=wrap;html=1;" vertex="1" parent="1">
          <mxGeometry x="650" y="170" width="80" height="50" as="geometry" />
        </mxCell>
        <mxCell id="IdgG0UY67lodC6Iq7d0v-16" style="edgeStyle=orthogonalEdgeStyle;rounded=0;orthogonalLoop=1;jettySize=auto;html=1;exitX=0.25;exitY=0;exitDx=0;exitDy=0;entryX=0.75;entryY=1;entryDx=0;entryDy=0;entryPerimeter=0;" edge="1" parent="1" source="IdgG0UY67lodC6Iq7d0v-8" target="IdgG0UY67lodC6Iq7d0v-14">
          <mxGeometry relative="1" as="geometry" />
        </mxCell>
        <mxCell id="IdgG0UY67lodC6Iq7d0v-18" value="Manage" style="rhombus;whiteSpace=wrap;html=1;" vertex="1" parent="1">
          <mxGeometry x="370" y="330" width="80" height="80" as="geometry" />
        </mxCell>
        <mxCell id="IdgG0UY67lodC6Iq7d0v-19" value="" style="endArrow=none;html=1;rounded=0;entryX=0;entryY=1;entryDx=0;entryDy=0;" edge="1" parent="1" target="IdgG0UY67lodC6Iq7d0v-8">
          <mxGeometry width="50" height="50" relative="1" as="geometry">
            <mxPoint x="450" y="370" as="sourcePoint" />
            <mxPoint x="500" y="320" as="targetPoint" />
          </mxGeometry>
        </mxCell>
        <mxCell id="IdgG0UY67lodC6Iq7d0v-20" value="" style="endArrow=none;html=1;rounded=0;entryX=0;entryY=0.5;entryDx=0;entryDy=0;exitX=1;exitY=1;exitDx=0;exitDy=0;shape=link;" edge="1" parent="1" source="IdgG0UY67lodC6Iq7d0v-1" target="IdgG0UY67lodC6Iq7d0v-18">
          <mxGeometry width="50" height="50" relative="1" as="geometry">
            <mxPoint x="290" y="370" as="sourcePoint" />
            <mxPoint x="340" y="320" as="targetPoint" />
          </mxGeometry>
        </mxCell>
        <mxCell id="IdgG0UY67lodC6Iq7d0v-21" value="1" style="text;html=1;align=center;verticalAlign=middle;whiteSpace=wrap;rounded=0;" vertex="1" parent="1">
          <mxGeometry x="220" y="300" width="60" height="30" as="geometry" />
        </mxCell>
        <mxCell id="IdgG0UY67lodC6Iq7d0v-22" value="1" style="text;html=1;align=center;verticalAlign=middle;whiteSpace=wrap;rounded=0;" vertex="1" parent="1">
          <mxGeometry x="560" y="300" width="60" height="30" as="geometry" />
        </mxCell>
        <mxCell id="IdgG0UY67lodC6Iq7d0v-34" style="edgeStyle=orthogonalEdgeStyle;rounded=0;orthogonalLoop=1;jettySize=auto;html=1;exitX=0.75;exitY=1;exitDx=0;exitDy=0;entryX=0.5;entryY=0;entryDx=0;entryDy=0;" edge="1" parent="1" source="IdgG0UY67lodC6Iq7d0v-23" target="IdgG0UY67lodC6Iq7d0v-25">
          <mxGeometry relative="1" as="geometry" />
        </mxCell>
        <mxCell id="IdgG0UY67lodC6Iq7d0v-23" value="&lt;b style=&quot;font-size: 16px;&quot;&gt;Property&lt;/b&gt;" style="rounded=0;whiteSpace=wrap;html=1;" vertex="1" parent="1">
          <mxGeometry x="110" y="480" width="120" height="60" as="geometry" />
        </mxCell>
        <mxCell id="IdgG0UY67lodC6Iq7d0v-24" value="Prop_id" style="ellipse;whiteSpace=wrap;html=1;" vertex="1" parent="1">
          <mxGeometry x="80" y="575" width="70" height="50" as="geometry" />
        </mxCell>
        <mxCell id="IdgG0UY67lodC6Iq7d0v-25" value="Location" style="ellipse;whiteSpace=wrap;html=1;" vertex="1" parent="1">
          <mxGeometry x="170" y="575" width="70" height="50" as="geometry" />
        </mxCell>
        <mxCell id="IdgG0UY67lodC6Iq7d0v-27" value="City" style="ellipse;whiteSpace=wrap;html=1;" vertex="1" parent="1">
          <mxGeometry x="110" y="650" width="70" height="50" as="geometry" />
        </mxCell>
        <mxCell id="IdgG0UY67lodC6Iq7d0v-28" value="State" style="ellipse;whiteSpace=wrap;html=1;" vertex="1" parent="1">
          <mxGeometry x="180" y="650" width="70" height="50" as="geometry" />
        </mxCell>
        <mxCell id="IdgG0UY67lodC6Iq7d0v-29" value="Zip_code" style="ellipse;whiteSpace=wrap;html=1;" vertex="1" parent="1">
          <mxGeometry x="250" y="650" width="70" height="50" as="geometry" />
        </mxCell>
        <mxCell id="IdgG0UY67lodC6Iq7d0v-31" style="edgeStyle=orthogonalEdgeStyle;rounded=0;orthogonalLoop=1;jettySize=auto;html=1;exitX=0;exitY=1;exitDx=0;exitDy=0;entryX=0.697;entryY=0.08;entryDx=0;entryDy=0;entryPerimeter=0;" edge="1" parent="1" source="IdgG0UY67lodC6Iq7d0v-25" target="IdgG0UY67lodC6Iq7d0v-27">
          <mxGeometry relative="1" as="geometry" />
        </mxCell>
        <mxCell id="IdgG0UY67lodC6Iq7d0v-32" style="edgeStyle=orthogonalEdgeStyle;rounded=0;orthogonalLoop=1;jettySize=auto;html=1;exitX=0.5;exitY=1;exitDx=0;exitDy=0;entryX=0.314;entryY=0.032;entryDx=0;entryDy=0;entryPerimeter=0;" edge="1" parent="1" source="IdgG0UY67lodC6Iq7d0v-25" target="IdgG0UY67lodC6Iq7d0v-28">
          <mxGeometry relative="1" as="geometry" />
        </mxCell>
        <mxCell id="IdgG0UY67lodC6Iq7d0v-33" style="edgeStyle=orthogonalEdgeStyle;rounded=0;orthogonalLoop=1;jettySize=auto;html=1;exitX=1;exitY=1;exitDx=0;exitDy=0;entryX=0.286;entryY=0;entryDx=0;entryDy=0;entryPerimeter=0;" edge="1" parent="1" source="IdgG0UY67lodC6Iq7d0v-25" target="IdgG0UY67lodC6Iq7d0v-29">
          <mxGeometry relative="1" as="geometry" />
        </mxCell>
        <mxCell id="IdgG0UY67lodC6Iq7d0v-35" style="edgeStyle=orthogonalEdgeStyle;rounded=0;orthogonalLoop=1;jettySize=auto;html=1;exitX=0.25;exitY=1;exitDx=0;exitDy=0;entryX=0.714;entryY=0.1;entryDx=0;entryDy=0;entryPerimeter=0;" edge="1" parent="1" source="IdgG0UY67lodC6Iq7d0v-23" target="IdgG0UY67lodC6Iq7d0v-24">
          <mxGeometry relative="1" as="geometry" />
        </mxCell>
        <mxCell id="IdgG0UY67lodC6Iq7d0v-36" value="list" style="rhombus;whiteSpace=wrap;html=1;" vertex="1" parent="1">
          <mxGeometry x="130" y="350" width="80" height="80" as="geometry" />
        </mxCell>
        <mxCell id="IdgG0UY67lodC6Iq7d0v-37" value="" style="endArrow=none;html=1;rounded=0;exitX=0.5;exitY=0;exitDx=0;exitDy=0;" edge="1" parent="1" source="IdgG0UY67lodC6Iq7d0v-36">
          <mxGeometry width="50" height="50" relative="1" as="geometry">
            <mxPoint x="120" y="350" as="sourcePoint" />
            <mxPoint x="170" y="300" as="targetPoint" />
          </mxGeometry>
        </mxCell>
        <mxCell id="IdgG0UY67lodC6Iq7d0v-38" value="" style="endArrow=none;html=1;rounded=0;entryX=0.5;entryY=1;entryDx=0;entryDy=0;exitX=0.5;exitY=0;exitDx=0;exitDy=0;shape=link;" edge="1" parent="1" source="IdgG0UY67lodC6Iq7d0v-23" target="IdgG0UY67lodC6Iq7d0v-36">
          <mxGeometry width="50" height="50" relative="1" as="geometry">
            <mxPoint x="50" y="480" as="sourcePoint" />
            <mxPoint x="100" y="430" as="targetPoint" />
          </mxGeometry>
        </mxCell>
        <mxCell id="IdgG0UY67lodC6Iq7d0v-39" value="M" style="text;html=1;align=center;verticalAlign=middle;whiteSpace=wrap;rounded=0;" vertex="1" parent="1">
          <mxGeometry x="115" y="450" width="60" height="30" as="geometry" />
        </mxCell>
        <mxCell id="IdgG0UY67lodC6Iq7d0v-40" value="1" style="text;html=1;align=center;verticalAlign=middle;whiteSpace=wrap;rounded=0;" vertex="1" parent="1">
          <mxGeometry x="120" y="300" width="60" height="30" as="geometry" />
        </mxCell>
        <mxCell id="IdgG0UY67lodC6Iq7d0v-41" value="has" style="rhombus;whiteSpace=wrap;html=1;" vertex="1" parent="1">
          <mxGeometry x="330" y="470" width="80" height="80" as="geometry" />
        </mxCell>
        <mxCell id="IdgG0UY67lodC6Iq7d0v-42" value="" style="endArrow=none;html=1;rounded=0;entryX=0;entryY=0.5;entryDx=0;entryDy=0;" edge="1" parent="1" target="IdgG0UY67lodC6Iq7d0v-41">
          <mxGeometry width="50" height="50" relative="1" as="geometry">
            <mxPoint x="230" y="510" as="sourcePoint" />
            <mxPoint x="280" y="460" as="targetPoint" />
          </mxGeometry>
        </mxCell>
        <mxCell id="IdgG0UY67lodC6Iq7d0v-43" value="" style="endArrow=none;html=1;rounded=0;" edge="1" parent="1" target="IdgG0UY67lodC6Iq7d0v-44">
          <mxGeometry width="50" height="50" relative="1" as="geometry">
            <mxPoint x="410" y="510" as="sourcePoint" />
            <mxPoint x="480" y="510" as="targetPoint" />
          </mxGeometry>
        </mxCell>
        <mxCell id="IdgG0UY67lodC6Iq7d0v-44" value="&lt;b style=&quot;font-size: 16px;&quot;&gt;Owner&lt;/b&gt;" style="rounded=0;whiteSpace=wrap;html=1;" vertex="1" parent="1">
          <mxGeometry x="490" y="480" width="120" height="60" as="geometry" />
        </mxCell>
        <mxCell id="IdgG0UY67lodC6Iq7d0v-45" value="owner_id" style="ellipse;whiteSpace=wrap;html=1;" vertex="1" parent="1">
          <mxGeometry x="530" y="410" width="80" height="50" as="geometry" />
        </mxCell>
        <mxCell id="IdgG0UY67lodC6Iq7d0v-46" value="owner_name" style="ellipse;whiteSpace=wrap;html=1;" vertex="1" parent="1">
          <mxGeometry x="640" y="450" width="80" height="50" as="geometry" />
        </mxCell>
        <mxCell id="IdgG0UY67lodC6Iq7d0v-47" style="edgeStyle=orthogonalEdgeStyle;rounded=0;orthogonalLoop=1;jettySize=auto;html=1;exitX=0.5;exitY=0;exitDx=0;exitDy=0;entryX=0.37;entryY=1.08;entryDx=0;entryDy=0;entryPerimeter=0;" edge="1" parent="1" source="IdgG0UY67lodC6Iq7d0v-44" target="IdgG0UY67lodC6Iq7d0v-45">
          <mxGeometry relative="1" as="geometry" />
        </mxCell>
        <mxCell id="IdgG0UY67lodC6Iq7d0v-48" style="edgeStyle=orthogonalEdgeStyle;rounded=0;orthogonalLoop=1;jettySize=auto;html=1;exitX=1;exitY=0.5;exitDx=0;exitDy=0;entryX=0.045;entryY=0.84;entryDx=0;entryDy=0;entryPerimeter=0;" edge="1" parent="1" source="IdgG0UY67lodC6Iq7d0v-44" target="IdgG0UY67lodC6Iq7d0v-46">
          <mxGeometry relative="1" as="geometry" />
        </mxCell>
        <mxCell id="IdgG0UY67lodC6Iq7d0v-49" value="M" style="text;html=1;align=center;verticalAlign=middle;whiteSpace=wrap;rounded=0;" vertex="1" parent="1">
          <mxGeometry x="220" y="480" width="60" height="30" as="geometry" />
        </mxCell>
        <mxCell id="IdgG0UY67lodC6Iq7d0v-50" value="M" style="text;html=1;align=center;verticalAlign=middle;whiteSpace=wrap;rounded=0;" vertex="1" parent="1">
          <mxGeometry x="430" y="480" width="60" height="30" as="geometry" />
        </mxCell>
        <mxCell id="IdgG0UY67lodC6Iq7d0v-51" value="precent" style="ellipse;whiteSpace=wrap;html=1;" vertex="1" parent="1">
          <mxGeometry x="335" y="590" width="70" height="50" as="geometry" />
        </mxCell>
        <mxCell id="IdgG0UY67lodC6Iq7d0v-52" value="" style="endArrow=none;html=1;rounded=0;exitX=0.5;exitY=0;exitDx=0;exitDy=0;" edge="1" parent="1" source="IdgG0UY67lodC6Iq7d0v-51">
          <mxGeometry width="50" height="50" relative="1" as="geometry">
            <mxPoint x="320" y="600" as="sourcePoint" />
            <mxPoint x="370" y="550" as="targetPoint" />
          </mxGeometry>
        </mxCell>
        <mxCell id="IdgG0UY67lodC6Iq7d0v-4" value="Location" style="ellipse;whiteSpace=wrap;html=1;" vertex="1" parent="1">
          <mxGeometry x="180" y="180" width="80" height="40" as="geometry" />
        </mxCell>
      </root>
    </mxGraphModel>
  </diagram>
</mxfile>
